Coordinates
version=1
nRows=16
nColumns=63
inDegrees=yes

Units are S.I. units (second, meters, Newtons, ...)
If the header above contains a line with 'inDegrees', this indicates whether rotational values are in degrees (yes) or radians (no).

endheader
time	pelvis_tilt	pelvis_list	pelvis_rotation	pelvis_tx	pelvis_ty	pelvis_tz	hip_flexion_r	hip_adduction_r	hip_rotation_r	knee_angle_r	knee_angle_r_beta	ankle_angle_r	subtalar_angle_r	mtp_angle_r	hip_flexion_l	hip_adduction_l	hip_rotation_l	knee_angle_l	knee_angle_l_beta	ankle_angle_l	subtalar_angle_l	mtp_angle_l	L5_S1_Flex_Ext	L5_S1_Lat_Bending	L5_S1_axial_rotation	L4_L5_Flex_Ext	L4_L5_Lat_Bending	L4_L5_axial_rotation	L3_L4_Flex_Ext	L3_L4_Lat_Bending	L3_L4_axial_rotation	L2_L3_Flex_Ext	L2_L3_Lat_Bending	L2_L3_axial_rotation	L1_L2_Flex_Ext	L1_L2_Lat_Bending	L1_L2_axial_rotation	L1_T12_Flex_Ext	L1_T12_Lat_Bending	L1_T12_axial_rotation	Abs_r3	Abs_r2	Abs_r1	Abs_t1	Abs_t2	neck_flexion	neck_bending	neck_rotation	arm_flex_r	arm_add_r	arm_rot_r	elbow_flex_r	pro_sup_r	wrist_flex_r	wrist_dev_r	arm_flex_l	arm_add_l	arm_rot_l	elbow_flex_l	pro_sup_l	wrist_flex_l	wrist_dev_l
3.975000	-1.266409	0.328804	94.184135	0.223418	0.829787	0.691314	-2.896100	1.683700	0.047342	9.905442	0.172883	38.165189	-12.462859	0.000000	-3.859983	-0.458141	15.102460	3.761178	0.065645	39.514431	4.577865	0.000000	-0.160160	-0.296995	-2.292022	-0.297433	-0.395003	-2.435273	-0.263127	-0.722113	-2.435273	-0.183047	-0.722113	-2.005519	-0.148725	-0.605632	-1.862268	-0.091515	-0.460045	-1.719016	-1.144007	-3.359663	-12.747537	0.000000	0.000000	24.520727	13.759202	-8.879397	61.215372	-17.799223	-14.378391	142.637130	71.431004	18.250615	26.685052	2.193063	-13.825920	137.772190	0.612190	2.164883	-14.254789	-17.591192
4.000000	-1.303719	0.315911	94.339466	0.223384	0.829960	0.691141	-2.933294	1.658653	-0.098984	9.769407	0.170508	38.184309	-12.403478	0.000000	-3.681801	-0.432019	14.198180	4.098521	0.071533	39.811361	5.830412	0.000000	-0.171304	-0.303877	-2.322707	-0.318129	-0.404156	-2.467876	-0.281436	-0.738847	-2.467876	-0.195783	-0.738847	-2.032368	-0.159073	-0.619666	-1.887199	-0.097883	-0.470706	-1.742030	-1.223608	-3.437518	-12.918197	0.000000	0.000000	24.309802	13.847403	-8.875670	60.984657	-17.734388	-14.000597	143.407843	73.001843	16.576216	26.197843	2.015224	-13.816700	138.156567	0.593595	2.195224	-14.535245	-17.432567
4.025000	-1.342171	0.338933	94.441535	0.223520	0.830200	0.691008	-2.994591	1.633862	-0.266656	9.656164	0.168532	38.206108	-12.298013	0.000000	-3.558239	-0.414981	13.223716	4.419121	0.077128	40.110005	7.142962	0.000000	-0.184456	-0.312114	-2.353009	-0.342553	-0.415111	-2.500072	-0.303042	-0.758873	-2.500072	-0.210814	-0.758873	-2.058883	-0.171286	-0.636462	-1.911820	-0.105398	-0.483464	-1.764757	-1.317549	-3.530692	-13.086729	0.000000	0.000000	24.066552	13.919829	-8.840299	60.751885	-17.582438	-13.632140	144.067117	74.648868	14.981855	25.416701	1.817303	-13.823166	138.540442	0.574206	2.225680	-14.789708	-17.267522
4.050000	-1.393644	0.378694	94.516907	0.223761	0.830448	0.690927	-3.060261	1.593908	-0.455256	9.573012	0.167081	38.272858	-12.125397	0.000000	-3.448734	-0.399276	11.733785	4.752031	0.082939	40.554725	9.105618	0.000000	-0.197180	-0.323647	-2.388771	-0.366184	-0.430451	-2.538069	-0.323948	-0.786916	-2.538069	-0.225358	-0.786916	-2.090174	-0.183102	-0.659981	-1.940876	-0.112669	-0.501330	-1.791578	-1.408440	-3.661162	-13.285625	0.000000	0.000000	23.872498	14.062664	-8.814415	60.430723	-17.396210	-13.307944	144.614642	76.219011	13.523795	24.565683	1.599201	-13.855170	138.883839	0.557721	2.275123	-15.025234	-17.125976
4.075000	-1.441057	0.438122	94.527909	0.224133	0.830686	0.690908	-3.122817	1.556037	-0.620017	9.535203	0.166421	38.357246	-11.924770	0.000000	-3.402283	-0.386745	10.538512	5.012290	0.087481	40.927039	10.639294	0.000000	-0.211661	-0.335560	-2.416288	-0.393075	-0.446295	-2.567306	-0.347737	-0.815880	-2.567306	-0.241907	-0.815880	-2.114252	-0.196548	-0.684274	-1.963234	-0.120943	-0.519782	-1.812216	-1.511871	-3.795919	-13.438669	0.000000	0.000000	23.789958	14.169165	-8.857451	59.887125	-17.215869	-13.028665	145.103969	77.802587	11.962273	23.495204	1.400957	-13.901843	139.259259	0.538218	2.319438	-15.195086	-16.993737
4.100000	-1.494997	0.491542	94.538944	0.224527	0.830838	0.690782	-3.189512	1.522794	-0.659174	9.505142	0.165896	38.419183	-11.895925	0.000000	-3.432685	-0.367556	10.254356	5.121614	0.089389	41.077040	11.046651	0.000000	-0.221112	-0.348230	-2.437969	-0.410627	-0.463146	-2.590342	-0.363265	-0.846687	-2.590342	-0.252709	-0.846687	-2.133223	-0.205325	-0.710111	-1.980850	-0.126343	-0.539409	-1.828477	-1.579380	-3.939252	-13.559251	0.000000	0.000000	23.828463	14.394443	-8.750257	58.979185	-17.094864	-12.891355	145.633262	78.659500	10.594462	22.680124	1.212531	-13.953423	139.742171	0.522023	2.376207	-15.434294	-16.900144
4.125000	-1.538698	0.514463	94.529941	0.224901	0.830854	0.690557	-3.226490	1.495190	-0.669063	9.496301	0.165742	38.477747	-11.893332	0.000000	-3.491917	-0.356608	10.295358	5.123281	0.089418	41.164763	11.059292	0.000000	-0.222716	-0.358094	-2.438680	-0.413605	-0.476265	-2.591097	-0.365900	-0.870670	-2.591097	-0.254542	-0.870670	-2.133845	-0.206814	-0.730225	-1.981427	-0.127260	-0.554688	-1.829010	-1.590837	-4.050832	-13.563206	0.000000	0.000000	23.999519	14.579801	-8.605273	57.471759	-17.042928	-12.881490	146.194187	79.389481	9.387832	21.552035	1.077971	-13.985157	140.318726	0.506904	2.426388	-15.595534	-16.819813
4.150000	-1.567545	0.491693	94.498697	0.225232	0.830711	0.690222	-3.219617	1.480322	-0.594114	9.501294	0.165829	38.501656	-11.987947	0.000000	-3.564887	-0.356725	10.686718	5.014559	0.087521	41.174113	10.654137	0.000000	-0.213990	-0.363949	-2.409591	-0.397400	-0.484052	-2.560190	-0.351564	-0.884906	-2.560190	-0.244569	-0.884906	-2.108392	-0.198711	-0.742165	-1.957793	-0.122274	-0.563757	-1.807193	-1.528507	-4.117065	-13.401422	0.000000	0.000000	24.284494	14.675454	-8.428396	55.182025	-17.014202	-12.988495	146.687663	79.984270	8.353034	20.022462	1.018745	-13.982457	140.930653	0.498074	2.451492	-15.664550	-16.773835
4.175000	-1.576935	0.426010	94.430181	0.225496	0.830428	0.689818	-3.164352	1.474509	-0.464406	9.524943	0.166242	38.502068	-12.107326	0.000000	-3.648345	-0.367881	11.414633	4.801777	0.083807	41.090256	9.832220	0.000000	-0.196152	-0.364657	-2.345639	-0.364273	-0.484993	-2.492242	-0.322258	-0.886626	-2.492242	-0.224182	-0.886626	-2.052434	-0.182146	-0.743608	-1.905832	-0.112081	-0.564853	-1.759229	-1.401092	-4.125067	-13.045741	0.000000	0.000000	24.648992	14.624868	-8.252832	52.090296	-16.955910	-13.177269	146.921703	80.375038	7.466907	18.153086	1.050032	-13.930536	141.463241	0.502039	2.447548	-15.651271	-16.772824
4.200000	-1.567494	0.322110	94.359484	0.225628	0.830035	0.689435	-3.058213	1.471856	-0.378928	9.571709	0.167058	38.511694	-12.155975	0.000000	-3.717028	-0.391336	12.271789	4.523019	0.078942	40.959915	8.877860	0.000000	-0.171371	-0.360087	-2.254550	-0.318254	-0.478916	-2.395459	-0.281546	-0.875516	-2.395459	-0.195860	-0.875516	-1.972731	-0.159135	-0.734290	-1.831822	-0.097922	-0.557775	-1.690912	-1.224088	-4.073381	-12.539130	0.000000	0.000000	25.062491	14.400553	-8.096686	48.229108	-16.805598	-13.446741	146.716846	80.535919	6.656204	16.086686	1.182154	-13.827088	141.747638	0.523690	2.427576	-15.425092	-16.838961
4.225000	-1.552865	0.186068	94.276733	0.225646	0.829574	0.689136	-2.904827	1.463956	-0.234924	9.636080	0.168181	38.503916	-12.243567	0.000000	-3.789250	-0.406031	13.600898	4.145549	0.072353	40.681488	7.343102	0.000000	-0.141860	-0.352834	-2.136786	-0.263449	-0.469270	-2.270335	-0.233062	-0.857881	-2.270335	-0.162132	-0.857881	-1.869687	-0.131732	-0.719500	-1.736138	-0.081059	-0.546540	-1.602589	-1.013295	-3.991331	-11.884160	0.000000	0.000000	25.504495	14.015435	-8.030773	43.623337	-16.562886	-13.834828	145.958576	80.550390	5.783056	14.165165	1.413075	-13.682595	141.884667	0.556357	2.375237	-15.065613	-16.969663
4.250000	-1.557126	0.024780	94.194592	0.225582	0.829100	0.689013	-2.701609	1.422207	-0.122253	9.732999	0.169873	38.502098	-12.268956	0.000000	-3.839804	-0.394208	14.996695	3.722849	0.064976	40.350571	5.751651	0.000000	-0.110784	-0.347854	-2.003380	-0.205737	-0.462645	-2.128591	-0.182007	-0.845772	-2.128591	-0.126615	-0.845772	-1.752958	-0.102874	-0.709343	-1.627746	-0.063302	-0.538825	-1.502535	-0.791319	-3.934991	-11.142200	0.000000	0.000000	25.943062	13.530179	-8.104666	38.395435	-16.207641	-14.504281	144.412894	80.738180	4.900335	12.688840	1.718108	-13.530143	141.783910	0.600968	2.310135	-14.577537	-17.194170
4.275000	-1.607404	-0.142257	94.102783	0.225538	0.828635	0.689097	-2.467737	1.334104	0.062563	9.860343	0.172095	38.490610	-12.360642	0.000000	-3.886006	-0.329148	16.523159	3.262815	0.056947	39.943908	3.992066	0.000000	-0.082327	-0.351372	-1.863821	-0.152889	-0.467324	-1.980310	-0.135255	-0.854325	-1.980310	-0.094092	-0.854325	-1.630844	-0.076449	-0.716517	-1.514355	-0.047042	-0.544275	-1.397866	-0.588053	-3.974788	-10.366014	0.000000	0.000000	26.335221	12.991488	-8.399271	32.763403	-15.691365	-16.182459	141.560627	81.968489	4.179180	11.632152	2.056173	-13.408988	141.540680	0.652512	2.226159	-14.044445	-17.441899
4.300000	-1.700689	-0.310586	94.022501	0.225444	0.828100	0.689394	-2.207482	1.203705	0.291788	10.020754	0.174895	38.491265	-12.539196	0.000000	-3.907886	-0.217454	18.063031	2.811040	0.049062	39.502136	2.213650	0.000000	-0.058160	-0.360375	-1.728237	-0.108009	-0.479298	-1.836252	-0.095551	-0.876215	-1.836252	-0.066471	-0.876215	-1.512207	-0.054008	-0.734876	-1.404192	-0.033233	-0.558220	-1.296178	-0.415432	-4.076629	-9.611934	0.000000	0.000000	26.683356	12.358403	-8.818906	27.056496	-15.241011	-19.428432	136.890636	85.142681	2.968673	10.685885	2.397223	-13.304108	141.328585	0.710287	2.142024	-13.518173	-17.603184
4.325000	-1.789575	-0.486249	93.920150	0.225170	0.827422	0.689821	-1.917780	1.062557	0.474032	10.214125	0.178270	38.535315	-12.657902	0.000000	-3.900327	-0.095962	19.595076	2.381601	0.041567	39.039019	0.381094	0.000000	-0.037045	-0.361646	-1.589338	-0.068797	-0.480989	-1.688672	-0.060861	-0.879306	-1.688672	-0.042339	-0.879306	-1.390671	-0.034400	-0.737468	-1.291337	-0.021168	-0.560189	-1.192003	-0.264610	-4.091010	-8.839421	0.000000	0.000000	26.989122	11.548928	-9.140721	21.890798	-14.770500	-19.953313	129.929614	86.222478	1.871450	9.421076	2.725333	-13.153240	141.390575	0.767393	2.084704	-12.908894	-17.663549
4.350000	-1.831574	-0.677879	93.707357	0.224630	0.826452	0.690241	-1.583448	0.943435	0.701836	10.467354	0.182690	38.622259	-12.757161	0.000000	-3.873851	0.006431	21.008811	1.974239	0.034457	38.602965	-1.465765	0.000000	-0.017465	-0.344038	-1.423801	-0.032433	-0.457571	-1.512789	-0.028693	-0.836495	-1.512789	-0.019960	-0.836495	-1.245826	-0.016218	-0.701563	-1.156839	-0.009979	-0.532915	-1.067851	-0.124748	-3.891831	-7.918756	0.000000	0.000000	27.283602	10.501801	-9.247897	17.223103	-14.418178	-17.678186	121.127366	85.541837	0.635885	7.951656	3.034033	-12.875339	142.107311	0.818288	2.056752	-12.289697	-17.503298
